<?xml version="1.0" encoding="UTF-8"?>
<svg id="Layer_1" data-name="Layer 1" xmlns="http://www.w3.org/2000/svg" viewBox="0 0 440.91 412.91">
  <g>
    <path d="M272.71,0v251.5c0,6.99-3.46,17.82-7.18,23.82-14.99,24.17-48.02,26.93-70.39,11.65-4.88,1.75-8.32,4.79-13.47,6.49-29.03,9.52-64.96-7-64.96-39.96V0h34v255.5s.11,8.03,13.5,8.03c12.5,0,13.5-7.86,13.5-8.03V0h33.49c-.32,62.54-1.11,191.22-.49,251.5-.24,13.98,23.03,15.78,27.32,4.32,3.54-9.46,1.73-37.67,1.72-49.36,0-10.21-.03-20.66,0-30.91.13-33.9-.21-139.31-.44-175.55h33.4Z"/>
    <rect x="67.74" width="33" height="296"/>
    <polygon points="363.74 263 321.68 263 321.68 0 288.68 0 288.68 296 321.68 296 321.68 296 363.74 296 363.74 263"/>
  </g>
  <g>
    <path d="M6.25,358.86v-43.74h5.5v43.74h-5.5Z"/>
    <path d="M94.1,315.12h6v.5l-18.12,43.24h-1.12l-13.68-30.05-13.75,30.05h-1.12l-18.12-43.24v-.5h6l12.87,31.49,12.62-26.87h3.12l12.43,26.87,12.87-31.49Z"/>
    <path d="M130.72,326.99h5.12v31.87h-5.12v-3.31c-2.56,2.37-6.62,4.06-11,4.06-8.56,0-15.87-6.44-15.87-16.68s7.31-16.68,15.87-16.68c4.37,0,8.44,1.69,11,4.06v-3.31ZM130.72,350.48v-15.12c-2.69-2.81-6.62-4.5-10.31-4.5-6,0-11.18,4.5-11.31,12.06.12,7.56,5.31,12.06,11.31,12.06,3.56,0,7.56-1.69,10.31-4.5Z"/>
    <path d="M174.4,338.92v19.93h-5.06v-19.93c0-5.37-3.25-8.06-7.69-8.06-3.87,0-7.56,2.44-9.69,6.06v21.93h-5.12v-31.87h5.12v4.44c2.37-3.12,6.44-5.19,10.81-5.19,6.81,0,11.62,4.56,11.62,12.68Z"/>
    <path d="M202.02,354.29v4.56c-1.5.44-3.5.75-5.62.75-8.19,0-11.93-5.81-11.93-13.5v-24.43l4.37-3.69h.75v9h11.68v4.37h-11.68v14.62c0,4.62,1.81,9,7.56,9,1.75,0,3.44-.31,4.87-.69Z"/>
    <path d="M230.26,353.73h19.31v5.12h-24.81v-43.74h5.5v38.62Z"/>
    <path d="M281.19,326.99h5.12v31.87h-5.12v-3.31c-2.56,2.37-6.62,4.06-11,4.06-8.56,0-15.87-6.44-15.87-16.68s7.31-16.68,15.87-16.68c4.37,0,8.44,1.69,11,4.06v-3.31ZM281.19,350.48v-15.12c-2.69-2.81-6.62-4.5-10.31-4.5-6,0-11.18,4.5-11.31,12.06.12,7.56,5.31,12.06,11.31,12.06,3.56,0,7.56-1.69,10.31-4.5Z"/>
    <path d="M338.74,326.99h5.5v.44l-13.06,31.43h-.69l-11.87-21.68-11.68,21.68h-.75l-13.25-31.43v-.44h5.5l8.75,21.81,10.56-20.12h1.62l10.93,19.93,8.44-21.62Z"/>
    <path d="M374.73,326.99h5.37v.44l-13.06,32.93c-2.31,5.69-7.31,11.43-16.12,11.43-1.5,0-3.12-.25-4.44-.56v-4.62c1.44.31,2.81.56,4.12.56,4.94,0,8.31-3.37,10.25-6.44l-14.18-33.3v-.44h5.56l11.56,27.31,10.94-27.31Z"/>
    <path d="M414.35,343.17h-24.56c.25,7.44,5.19,11.81,11.56,11.81,3.31,0,7.69-1.12,11.25-2.75v4.69c-2.87,1.62-7.62,2.69-11.62,2.69-10.44,0-16.43-7.25-16.43-16.93,0-10.31,6.75-16.43,15.5-16.43,9.19,0,14.37,6.56,14.37,15.25,0,.69,0,1.25-.06,1.69ZM390.17,339.05h18.93c-.38-4.81-3.69-8.19-8.94-8.19s-8.81,3.06-10,8.19Z"/>
    <path d="M439.47,326.3v5.75c-.5-.19-1.75-.25-2.31-.25-2.31,0-6.25.75-9.44,3.87v23.18h-5.12v-31.87h5.12v4.94c2.19-2.56,6.25-5.69,10.81-5.69.38,0,.69,0,.94.06Z"/>
  </g>
  <g>
    <path d="M9.52,406.91v-19.72h.84v19.72h-.84Z"/>
    <path d="M27.85,398.01v8.9h-.82v-8.9c0-3.55-2.2-5.01-4.37-5.01-2.39,0-4.48,1.72-5.35,3.69v10.22h-.85v-14.37h.85v2.79c1.04-1.86,2.96-3.13,5.35-3.13,2.65,0,5.18,1.72,5.18,5.8Z"/>
    <path d="M32.97,388.24c0-.39.37-.76.76-.76s.76.37.76.76-.37.76-.76.76-.76-.37-.76-.76ZM33.31,406.91v-14.37h.85v14.37h-.85Z"/>
    <path d="M47.09,406.27v.76c-.62.14-1.32.23-2,.23-3.86,0-5.49-2.62-5.49-6.08v-12.48l.68-.65h.17v4.51h6.45v.79h-6.45v7.77c0,2.06.56,5.35,4.82,5.35.65,0,1.27-.08,1.83-.2Z"/>
    <path d="M49.84,388.24c0-.39.37-.76.76-.76s.76.37.76.76-.37.76-.76.76-.76-.37-.76-.76ZM50.18,406.91v-14.37h.85v14.37h-.85Z"/>
    <path d="M67.02,392.55h.82v14.37h-.82v-2.79c-1.04,1.86-2.96,3.13-5.38,3.13-2.62,0-5.18-1.72-5.18-5.8v-8.9h.85v8.9c0,3.55,2.17,5.01,4.34,5.01,2.39,0,4.51-1.72,5.38-3.72v-10.2Z"/>
    <path d="M93.89,398.01v8.9h-.85v-8.9c0-3.55-2.03-5.01-4.14-5.01-2.48,0-4.08,1.97-4.84,3.86.06.37.08.73.08,1.15v8.9h-.85v-8.9c0-3.55-2.03-5.01-4.14-5.01-2.37,0-3.97,1.83-4.73,3.66v10.25h-.85v-14.37h.85v2.68c.79-1.46,2.42-3.01,4.82-3.01,2.14,0,3.94,1.27,4.62,3.66.62-1.63,2.39-3.66,5.13-3.66s4.9,2.06,4.9,5.8Z"/>
    <path d="M105.94,405.56v-.96c1.18,1.1,3.27,1.83,5.32,1.83,3.21,0,5.24-1.78,5.24-4.48,0-2.03-1.13-3.32-3.52-4.11l-2.96-.99c-2.45-.7-3.77-2.37-3.77-4.79,0-3.15,2.23-5.21,5.58-5.21,1.58,0,3.52.45,4.53,1.24v1.01c-.79-.79-2.68-1.44-4.45-1.44-2.7,0-4.79,1.55-4.79,4.42,0,2.08,1.04,3.32,3.15,4.03l3.18,1.01c2.56.79,3.94,2.51,3.94,4.87,0,2.84-2.25,5.24-6.03,5.24-1.97,0-4-.65-5.44-1.69Z"/>
    <path d="M133.32,392.55h.85v14.37h-.85v-2.2c-1.15,1.55-3.46,2.54-5.66,2.54-4.34,0-7.21-3.01-7.21-7.52s2.87-7.52,7.21-7.52c2.2,0,4.51.99,5.66,2.54v-2.2ZM133.32,403.67v-7.89c-1.21-1.69-3.27-2.79-5.72-2.79-3.77,0-6.31,2.68-6.31,6.73s2.54,6.73,6.31,6.73c2.11,0,4.45-1.1,5.72-2.79Z"/>
    <path d="M153.62,399.7c0,4.54-2.9,7.55-7.1,7.55-2.54,0-4.7-1.1-5.77-2.56v7.72h-.85v-19.86h.85v2.22c1.1-1.49,3.3-2.56,5.77-2.56,4,0,7.1,2.82,7.1,7.49ZM152.78,399.73c0-4.06-2.51-6.73-6.34-6.73-2.42,0-4.51,1.1-5.69,2.82v7.83c1.18,1.63,3.44,2.82,5.83,2.82,3.63,0,6.2-2.68,6.2-6.73Z"/>
    <path d="M157.71,388.24c0-.39.37-.76.76-.76s.76.37.76.76-.37.76-.76.76-.76-.37-.76-.76ZM158.04,406.91v-14.37h.85v14.37h-.85Z"/>
    <path d="M164.15,399.08v.51c0,4.14,2.56,6.87,6.2,6.87,1.52,0,3.44-.48,4.96-1.27v.84c-1.27.73-3.3,1.21-4.96,1.21-4.28,0-7.04-3.04-7.04-7.63s2.79-7.41,6.68-7.41,6.11,2.79,6.11,6.59c0,.14,0,.25-.03.28h-11.92ZM164.24,398.32h11.01c-.17-3.13-2.11-5.32-5.27-5.32s-5.3,2-5.75,5.32Z"/>
    <path d="M191.67,398.01v8.9h-.82v-8.9c0-3.55-2.2-5.01-4.37-5.01-2.39,0-4.48,1.72-5.35,3.69v10.22h-.85v-14.37h.85v2.79c1.04-1.86,2.96-3.13,5.35-3.13,2.65,0,5.18,1.72,5.18,5.8Z"/>
    <path d="M204.34,406.27v.76c-.62.14-1.32.23-2,.23-3.86,0-5.49-2.62-5.49-6.08v-12.48l.68-.65h.17v4.51h6.45v.79h-6.45v7.77c0,2.06.56,5.35,4.82,5.35.65,0,1.27-.08,1.83-.2Z"/>
    <path d="M207.1,388.24c0-.39.37-.76.76-.76s.76.37.76.76-.37.76-.76.76-.76-.37-.76-.76ZM207.44,406.91v-14.37h.84v14.37h-.84Z"/>
    <path d="M225.55,392.55h.84v14.37h-.84v-2.2c-1.16,1.55-3.46,2.54-5.66,2.54-4.34,0-7.21-3.01-7.21-7.52s2.87-7.52,7.21-7.52c2.2,0,4.51.99,5.66,2.54v-2.2ZM225.55,403.67v-7.89c-1.21-1.69-3.27-2.79-5.72-2.79-3.77,0-6.31,2.68-6.31,6.73s2.54,6.73,6.31,6.73c2.11,0,4.45-1.1,5.72-2.79Z"/>
    <path d="M230.81,399.73c0-4.48,3.07-7.52,7.32-7.52,1.55,0,2.96.39,4.08.99v.82h-.14c-1.01-.65-2.37-1.01-3.8-1.01-3.83,0-6.62,2.7-6.62,6.73s2.79,6.73,6.62,6.73c1.44,0,2.79-.37,3.8-1.01h.14v.82c-1.13.59-2.54.99-4.08.99-4.25,0-7.32-3.04-7.32-7.52Z"/>
    <path d="M245.4,411.81l1.72-6.48h.93l-1.78,6.48h-.87ZM246.78,393.2c0-.39.39-.76.82-.76.39,0,.79.37.79.76,0,.45-.39.82-.79.82-.42,0-.82-.37-.82-.82Z"/>
    <path d="M271.51,387.2v.82h-5.89v18.9h-.84v-18.9h-5.13v-.82h11.86Z"/>
    <path d="M274.89,388.24c0-.39.37-.76.76-.76s.76.37.76.76-.37.76-.76.76-.76-.37-.76-.76ZM275.23,406.91v-14.37h.84v14.37h-.84Z"/>
    <path d="M302.1,398.01v8.9h-.84v-8.9c0-3.55-2.03-5.01-4.14-5.01-2.48,0-4.08,1.97-4.84,3.86.06.37.08.73.08,1.15v8.9h-.84v-8.9c0-3.55-2.03-5.01-4.14-5.01-2.37,0-3.97,1.83-4.73,3.66v10.25h-.84v-14.37h.84v2.68c.79-1.46,2.42-3.01,4.82-3.01,2.14,0,3.94,1.27,4.62,3.66.62-1.63,2.39-3.66,5.13-3.66s4.9,2.06,4.9,5.8Z"/>
    <path d="M306.21,399.62c0-4.17,3.32-7.41,7.44-7.41s7.44,3.24,7.44,7.41-3.32,7.63-7.44,7.63-7.44-3.32-7.44-7.63ZM320.23,399.62c0-3.8-2.96-6.62-6.59-6.62s-6.59,2.82-6.59,6.62,2.93,6.84,6.59,6.84,6.59-2.93,6.59-6.84Z"/>
    <path d="M331.55,392.24v.76h-.34c-1.69,0-3.63,1.01-4.9,2.48v11.44h-.84v-14.37h.84v1.97c1.27-1.32,3.24-2.31,4.93-2.31.11,0,.25,0,.31.03Z"/>
    <path d="M348.82,387.2c5.86,0,9.46,4.23,9.46,9.86s-3.72,9.86-9.46,9.86h-5.69v-19.72h5.69ZM348.82,406.1c5.21,0,8.59-3.83,8.59-9.04s-3.38-9.04-8.59-9.04h-4.84v18.08h4.84Z"/>
    <path d="M361.55,399.62c0-4.17,3.32-7.41,7.44-7.41s7.44,3.24,7.44,7.41-3.32,7.63-7.44,7.63-7.44-3.32-7.44-7.63ZM375.57,399.62c0-3.8-2.96-6.62-6.59-6.62s-6.59,2.82-6.59,6.62,2.93,6.84,6.59,6.84,6.59-2.93,6.59-6.84Z"/>
    <path d="M401.12,398.01v8.9h-.84v-8.9c0-3.55-2.03-5.01-4.14-5.01-2.48,0-4.08,1.97-4.84,3.86.06.37.08.73.08,1.15v8.9h-.84v-8.9c0-3.55-2.03-5.01-4.14-5.01-2.37,0-3.97,1.83-4.73,3.66v10.25h-.84v-14.37h.84v2.68c.79-1.46,2.42-3.01,4.82-3.01,2.14,0,3.94,1.27,4.62,3.66.62-1.63,2.39-3.66,5.13-3.66s4.9,2.06,4.9,5.8Z"/>
    <path d="M406.24,388.24c0-.39.37-.76.76-.76s.76.37.76.76-.37.76-.76.76-.76-.37-.76-.76ZM406.58,406.91v-14.37h.84v14.37h-.84Z"/>
    <path d="M424.52,398.01v8.9h-.82v-8.9c0-3.55-2.2-5.01-4.37-5.01-2.39,0-4.48,1.72-5.35,3.69v10.22h-.84v-14.37h.84v2.79c1.04-1.86,2.96-3.13,5.35-3.13,2.65,0,5.18,1.72,5.18,5.8Z"/>
    <path d="M429.64,388.24c0-.39.37-.76.76-.76s.76.37.76.76-.37.76-.76.76-.76-.37-.76-.76ZM429.98,406.91v-14.37h.84v14.37h-.84Z"/>
  </g>
</svg>